<svg id="Layer_1" data-name="Layer 1" xmlns="http://www.w3.org/2000/svg" viewBox="0 0 196 64"><defs><style>.cls-1{fill:#f3f9ff;}</style></defs><path class="cls-1" d="M104.21,37.3H93.83V47.35H87.38v-25h6.45v9.34h10.38V22.34h6.45v25h-6.45Z"/><path class="cls-1" d="M125,45.55a7.49,7.49,0,0,1-5.62,2.25,6,6,0,0,1-6.23-6c0-4.39,3.45-5.7,6.23-5.7,2.4,0,4.53.75,5.62,2.1V36c0-1.58-1.35-2.62-3.67-2.62a8.06,8.06,0,0,0-5.14,1.91l-2.06-3.64a12.73,12.73,0,0,1,8.21-2.81c4.35,0,8.43,1.61,8.43,7.23V47.35H125Zm0-4.46a4.1,4.1,0,0,0-3.22-1.28c-1.54,0-2.89.68-2.89,2.1s1.35,2.1,2.89,2.1A4,4,0,0,0,125,42.7Z"/><path class="cls-1" d="M135,41.05a11.27,11.27,0,0,0,6.37,2.4c1.72,0,2.44-.56,2.44-1.35,0-.94-1.24-1.28-3.11-1.58-3.08-.52-7.43-1.16-7.43-5.77,0-3.19,2.74-6,7.76-6a12.73,12.73,0,0,1,7.58,2.4L146.43,35a8.05,8.05,0,0,0-5.32-2c-1.35,0-2.29.44-2.29,1.23s1,1.13,2.89,1.46c3.07.53,7.65,1.28,7.65,6.08,0,3.45-3,6-8.25,6A13.48,13.48,0,0,1,132.64,45Z"/><path class="cls-1" d="M152.77,42.47V34.26h-3v-5h3V24.29h5.74v4.95h3.67v5h-3.67v6.6a1.64,1.64,0,0,0,1.61,1.84,2.27,2.27,0,0,0,1.46-.45l1.13,4.35a6.36,6.36,0,0,1-4.28,1.2C154.76,47.8,152.77,46,152.77,42.47Z"/><path class="cls-1" d="M166.94,49.6c1.32,0,2.14-.27,2.44-1l.41-1L162.6,29.24h6.07l4.09,11.47,4.12-11.47H183l-8.17,20.69c-1.46,3.83-4.2,4.69-7.65,4.76a11.4,11.4,0,0,1-2.47-.3l.82-5.13A3.26,3.26,0,0,0,166.94,49.6Z"/><path class="cls-1" d="M78,33.71c-10.11.14-10.52-8.4-13.8-12.9s-5-.65-5-.65-9.75-7-14.28-6.85c-3.45.09-3.21,3.88-1.29,4.37H34.21a2.15,2.15,0,0,0,0,4.29h1.72a2.15,2.15,0,0,1,2.15,2.15,2.19,2.19,0,0,1-2.15,2.15H26a2.15,2.15,0,0,0,0,4.29H31.4a2.15,2.15,0,0,1,0,4.3H28.63a2.15,2.15,0,1,0,0,4.29H32.4a2.15,2.15,0,0,1,0,4.29l-10.77,0a2.13,2.13,0,0,0-1.52.63,2.11,2.11,0,0,0-.63,1.51,2.15,2.15,0,0,0,2.15,2.15s27.34.07,29,0c12.76-.44,28-3.18,28.07-13.36A.68.68,0,0,0,78,33.71Zm-14.38,2a2,2,0,1,1,2-2A2,2,0,0,1,63.66,35.73Z"/><rect class="cls-1" x="16.04" y="26.27" width="5.3" height="4.28" rx="2.14"/><rect class="cls-1" x="13.01" y="34.89" width="10.3" height="4.28" rx="2.14"/><rect class="cls-1" x="22.34" y="17.72" width="6.8" height="4.28" rx="2.14"/></svg>